<svg width="18" height="18" viewBox="0 0 18 18" fill="none" xmlns="http://www.w3.org/2000/svg">
<g clip-path="url(#clip0_1_217)">
<path d="M13.1315 8.13018C13.5072 8.13018 13.8119 7.82556 13.8119 7.4498C13.8119 7.07404 13.5072 6.76942 13.1315 6.76942C12.7557 6.76942 12.4511 7.07404 12.4511 7.4498C12.4511 7.82556 12.7557 8.13018 13.1315 8.13018Z" fill="#707070"/>
<path d="M14.6961 1.66664H13.8116V0.986262C13.8116 0.61049 13.507 0.305885 13.1313 0.305885C12.7555 0.305885 12.4509 0.61049 12.4509 0.986262V1.66664H9.35518V0.986262C9.35518 0.61049 9.05058 0.305885 8.6748 0.305885C8.29903 0.305885 7.99443 0.61049 7.99443 0.986262V1.66664H4.93273V0.986262C4.93273 0.61049 4.62813 0.305885 4.25236 0.305885C3.87658 0.305885 3.57198 0.61049 3.57198 0.986262V1.66664H2.72151C1.22087 1.66664 0 2.88751 0 4.38815V15.002C0 16.5027 1.22087 17.7235 2.72151 17.7235H7.92639C8.30216 17.7235 8.60677 17.4189 8.60677 17.0432C8.60677 16.6674 8.30216 16.3628 7.92639 16.3628H2.72151C1.97119 16.3628 1.36075 15.7523 1.36075 15.002V4.38815C1.36075 3.63783 1.97119 3.02739 2.72151 3.02739H3.57198V3.70777C3.57198 4.08354 3.87658 4.38815 4.25236 4.38815C4.62813 4.38815 4.93273 4.08354 4.93273 3.70777V3.02739H7.99443V3.70777C7.99443 4.08354 8.29903 4.38815 8.6748 4.38815C9.05058 4.38815 9.35518 4.08354 9.35518 3.70777V3.02739H12.4509V3.70777C12.4509 4.08354 12.7555 4.38815 13.1313 4.38815C13.507 4.38815 13.8116 4.08354 13.8116 3.70777V3.02739H14.6961C15.4465 3.02739 16.0569 3.63783 16.0569 4.38815V8.26629C16.0569 8.64207 16.3615 8.94667 16.7373 8.94667C17.113 8.94667 17.4176 8.64207 17.4176 8.26629V4.38815C17.4176 2.88751 16.1968 1.66664 14.6961 1.66664Z" fill="#707070"/>
<path d="M13.3016 9.49093C11.0318 9.49093 9.1853 11.3375 9.1853 13.6072C9.1853 15.8769 11.0318 17.7235 13.3016 17.7235C15.5713 17.7235 17.4179 15.8769 17.4179 13.6072C17.4179 11.3375 15.5713 9.49093 13.3016 9.49093ZM13.3016 16.3627C11.7822 16.3627 10.5461 15.1266 10.5461 13.6072C10.5461 12.0878 11.7822 10.8517 13.3016 10.8517C14.821 10.8517 16.0571 12.0878 16.0571 13.6072C16.0571 15.1266 14.821 16.3627 13.3016 16.3627Z" fill="#707070"/>
<path d="M14.2881 12.9268H13.982V12.2124C13.982 11.8367 13.6774 11.5321 13.3016 11.5321C12.9258 11.5321 12.6212 11.8367 12.6212 12.2124V13.6072C12.6212 13.983 12.9258 14.2876 13.3016 14.2876H14.2881C14.6639 14.2876 14.9685 13.983 14.9685 13.6072C14.9685 13.2314 14.6639 12.9268 14.2881 12.9268Z" fill="#707070"/>
<path d="M10.1718 8.13018C10.5476 8.13018 10.8522 7.82556 10.8522 7.4498C10.8522 7.07404 10.5476 6.76942 10.1718 6.76942C9.79607 6.76942 9.49146 7.07404 9.49146 7.4498C9.49146 7.82556 9.79607 8.13018 10.1718 8.13018Z" fill="#707070"/>
<path d="M7.21221 11.0898C7.58797 11.0898 7.89258 10.7852 7.89258 10.4094C7.89258 10.0337 7.58797 9.72906 7.21221 9.72906C6.83644 9.72906 6.53183 10.0337 6.53183 10.4094C6.53183 10.7852 6.83644 11.0898 7.21221 11.0898Z" fill="#707070"/>
<path d="M4.25258 8.13018C4.62834 8.13018 4.93296 7.82556 4.93296 7.4498C4.93296 7.07404 4.62834 6.76942 4.25258 6.76942C3.87682 6.76942 3.5722 7.07404 3.5722 7.4498C3.5722 7.82556 3.87682 8.13018 4.25258 8.13018Z" fill="#707070"/>
<path d="M4.25258 11.0898C4.62834 11.0898 4.93296 10.7852 4.93296 10.4094C4.93296 10.0337 4.62834 9.72906 4.25258 9.72906C3.87682 9.72906 3.5722 10.0337 3.5722 10.4094C3.5722 10.7852 3.87682 11.0898 4.25258 11.0898Z" fill="#707070"/>
<path d="M4.25258 14.0495C4.62834 14.0495 4.93296 13.7448 4.93296 13.3691C4.93296 12.9933 4.62834 12.6887 4.25258 12.6887C3.87682 12.6887 3.5722 12.9933 3.5722 13.3691C3.5722 13.7448 3.87682 14.0495 4.25258 14.0495Z" fill="#707070"/>
<path d="M7.21221 14.0495C7.58797 14.0495 7.89258 13.7448 7.89258 13.3691C7.89258 12.9933 7.58797 12.6887 7.21221 12.6887C6.83644 12.6887 6.53183 12.9933 6.53183 13.3691C6.53183 13.7448 6.83644 14.0495 7.21221 14.0495Z" fill="#707070"/>
<path d="M7.21221 8.13018C7.58797 8.13018 7.89258 7.82556 7.89258 7.4498C7.89258 7.07404 7.58797 6.76942 7.21221 6.76942C6.83644 6.76942 6.53183 7.07404 6.53183 7.4498C6.53183 7.82556 6.83644 8.13018 7.21221 8.13018Z" fill="#707070"/>
</g>
<defs>
<clipPath id="clip0_1_217">
<rect width="17.4176" height="17.4176" fill="white" transform="translate(0 0.305885)"/>
</clipPath>
</defs>
</svg>
