<svg width="18" height="19" viewBox="0 0 18 19" fill="none" xmlns="http://www.w3.org/2000/svg">
<path d="M2.27094 0.873823L9 7.60264L15.7014 0.901514C15.8188 0.776515 15.9603 0.67652 16.1173 0.607526C16.2743 0.538531 16.4437 0.501958 16.6152 0.5C16.9824 0.5 17.3346 0.64587 17.5942 0.90552C17.8539 1.16517 17.9998 1.51733 17.9998 1.88453C18.003 2.05428 17.9715 2.22289 17.9072 2.38003C17.8429 2.53717 17.7472 2.67951 17.6259 2.79832L10.8553 9.49945L17.6259 16.2698C17.8541 16.4931 17.988 16.7954 17.9998 17.1144C17.9998 17.4816 17.8539 17.8337 17.5942 18.0934C17.3346 18.353 16.9824 18.4989 16.6152 18.4989C16.4387 18.5062 16.2627 18.4768 16.0982 18.4124C15.9337 18.3481 15.7845 18.2502 15.6598 18.1251L9 11.3963L2.28478 18.1112C2.16779 18.2321 2.02803 18.3285 1.87357 18.3951C1.7191 18.4616 1.55298 18.4969 1.38481 18.4989C1.01759 18.4989 0.665419 18.353 0.40576 18.0934C0.1461 17.8337 0.000225279 17.4816 0.000225279 17.1144C-0.00300286 16.9446 0.0284922 16.776 0.0927777 16.6189C0.157063 16.4617 0.252783 16.3194 0.374062 16.2006L7.14466 9.49945L0.374062 2.72909C0.145862 2.50585 0.0120491 2.20354 0.000225279 1.88453C0.000225279 1.51733 0.1461 1.16517 0.40576 0.90552C0.665419 0.64587 1.01759 0.5 1.38481 0.5C1.71711 0.504154 2.03556 0.638453 2.27094 0.873823Z" fill="#FF9090"/>
</svg>
