<svg width="14" height="12" viewBox="0 0 14 12" fill="none" xmlns="http://www.w3.org/2000/svg">
<path d="M0.252122 0.27808C0.172299 0.356291 0.108884 0.449644 0.0655913 0.55267C0.022299 0.655697 0 0.766327 0 0.87808C0 0.989833 0.022299 1.10046 0.0655913 1.20349C0.108884 1.30652 0.172299 1.39987 0.252122 1.47808L4.96712 6.01808L0.272122 10.5581C0.124816 10.7176 0.0441412 10.9274 0.0466514 11.1446C0.0491615 11.3617 0.134666 11.5696 0.285621 11.7257C0.436577 11.8818 0.641537 11.9741 0.85845 11.9839C1.07536 11.9936 1.28778 11.92 1.45212 11.7781L7.41212 6.01808L1.45212 0.25308C1.37193 0.175479 1.27716 0.114531 1.17328 0.0737536C1.06941 0.0329767 0.958481 0.0131788 0.846913 0.0155032C0.735344 0.0178275 0.62534 0.0422279 0.523252 0.0872958C0.421165 0.132364 0.329015 0.197206 0.252122 0.27808Z" fill="#BCBCBC"/>
<path d="M6.25212 0.27808C6.1723 0.356291 6.10888 0.449644 6.06559 0.55267C6.0223 0.655697 6 0.766327 6 0.87808C6 0.989833 6.0223 1.10046 6.06559 1.20349C6.10888 1.30652 6.1723 1.39987 6.25212 1.47808L10.9671 6.01808L6.27212 10.5581C6.12482 10.7176 6.04414 10.9274 6.04665 11.1446C6.04916 11.3617 6.13467 11.5696 6.28562 11.7257C6.43658 11.8818 6.64154 11.9741 6.85845 11.9839C7.07536 11.9936 7.28778 11.92 7.45212 11.7781L13.4121 6.01808L7.45212 0.25308C7.37193 0.175479 7.27716 0.114531 7.17328 0.0737536C7.06941 0.0329767 6.95848 0.0131788 6.84691 0.0155032C6.73534 0.0178275 6.62534 0.0422279 6.52325 0.0872958C6.42116 0.132364 6.32901 0.197206 6.25212 0.27808Z" fill="#BCBCBC"/>
</svg>
